<?xml version="1.0" encoding="UTF-8"?>
<svg id="Layer_1" xmlns="http://www.w3.org/2000/svg" version="1.1" xmlnsXlink="http://www.w3.org/1999/xlink" viewBox="0 0 50 50">
  <!-- Generator: Adobe Illustrator 29.6.1, SVG Export Plug-In . SVG Version: 2.1.1 Build 9)  -->
  <defs>
    <linearGradient id="linear-gradient" x1="8.597" y1="31.945" x2="47.275" y2="31.945" gradientUnits="userSpaceOnUse">
      <stop offset="0" stop-color="#61beff"/>
      <stop offset="1" stop-color="#0076f1"/>
    </linearGradient>
    <linearGradient id="linear-gradient1" x1="2.51" y1="20.419" x2="47.49" y2="20.419" gradientUnits="userSpaceOnUse">
      <stop offset="0" stop-color="#c3db85"/>
      <stop offset="1" stop-color="#89ba37"/>
    </linearGradient>
  </defs>
  <path d="M38.292,14.183c-.192-.111-.373-.202-.564-.293h.008c.183.091.374.182.556.293h0ZM22.764,17.452c-.666.897-1.21,1.896-1.633,2.996-.605,1.544-.898,3.189-.898,4.945s.293,3.399.898,4.922c.595,1.535,1.432,2.877,2.501,4.016,1.068,1.151,2.35,2.058,3.82,2.725,1.483.666,3.096.997,4.85.997,1.412,0,2.764-.231,4.045-.665,1.29-.444,2.449-1.049,3.498-1.847.383-.231.706-.332.969-.281.251.04.513.231.764.574l5.497,7.91c.232.484.262.878.091,1.2-.171.323-.433.595-.797.807-2.017,1.352-4.176,2.401-6.504,3.138-2.319.736-4.769,1.11-7.341,1.11-2.267,0-4.436-.283-6.523-.868-2.088-.575-4.043-1.403-5.869-2.472-1.825-1.068-3.479-2.351-4.971-3.843-1.493-1.483-2.774-3.139-3.852-4.946-1.068-1.815-1.905-3.773-2.48-5.86-.081-.302-.162-.616-.232-.918,2.672-6.649,7.633-10.938,14.167-13.641h0Z" fill="url(#linear-gradient)"/>
  <path d="M2.657,40.837c-.857-12.59,1.977-24.95,9.348-32.709C18.882.894,30.296-1.799,39.764,1.218c2.421.767,4.681,1.857,6.777,3.269.383.222.655.504.837.837.182.333.142.747-.101,1.252l-5.726,8.253c-.263.353-.535.554-.798.595-.272.051-.595-.06-1.008-.302C23.087,5.697,5.814,22.759,2.779,40.183c-.05.232-.09.453-.121.654h0Z" fill="url(#linear-gradient1)" fillRule="evenodd"/>
</svg>