<?xml version="1.0" encoding="UTF-8"?>
<svg id="Layer_1" xmlns="http://www.w3.org/2000/svg" version="1.1" viewBox="0 0 24 24">
  <!-- Generator: Adobe Illustrator 29.6.1, SVG Export Plug-In . SVG Version: 2.1.1 Build 9)  -->
  <path d="M.864,5.635h6.831v-.006c.401,1.935,2.118,3.394,4.171,3.394s3.766-1.456,4.17-3.388h7.1c.477,0,.864-.39.864-.871s-.386-.871-.864-.871h0s-7.1,0-7.1,0c-.403-1.932-2.119-3.389-4.17-3.389s-3.77,1.459-4.171,3.394v-.004H.864c-.478,0-.864.39-.864.871s.387.871.864.871ZM11.866,2.246c1.388,0,2.518,1.129,2.518,2.517s-1.13,2.517-2.518,2.517-2.517-1.129-2.517-2.517,1.129-2.517,2.517-2.517ZM12.815,11.665c.482,0,.871.39.871.871s-.39.872-.871.872H.888c-.482,0-.871-.391-.871-.872s.39-.871.871-.871h11.927ZM23.128,18.374h-10.269c-.403-1.928-2.114-3.382-4.16-3.382s-3.757,1.453-4.161,3.382H.871c-.482,0-.871.39-.871.871s.39.871.871.871h3.666c.404,1.927,2.115,3.38,4.161,3.38s3.756-1.453,4.16-3.38h10.27c.482,0,.871-.39.871-.871s-.39-.871-.871-.871ZM8.698,21.754c-1.384,0-2.509-1.125-2.509-2.509s1.126-2.51,2.509-2.51,2.509,1.127,2.509,2.51-1.126,2.509-2.509,2.509ZM19.731,8.284c-2.345,0-4.251,1.908-4.251,4.252s1.908,4.252,4.251,4.252,4.253-1.908,4.253-4.252-1.908-4.252-4.253-4.252ZM19.731,15.045c-1.383,0-2.509-1.125-2.509-2.509s1.125-2.509,2.509-2.509,2.51,1.126,2.51,2.509-1.127,2.509-2.51,2.509Z"/>
</svg>