<?xml version="1.0" encoding="UTF-8"?>
<svg id="Layer_1" xmlns="http://www.w3.org/2000/svg" version="1.1" viewBox="0 0 128.759 24">
  <!-- Generator: Adobe Illustrator 29.6.1, SVG Export Plug-In . SVG Version: 2.1.1 Build 9)  -->
  <path d="M13.186.439l2.451,7.551c.134.412.517.69.95.69h7.934c.615,0,.871.787.373,1.148l-6.42,4.668c-.35.254-.496.705-.363,1.116l2.452,7.553c.19.585-.48,1.071-.977.71l-6.403-4.656c-.359-.261-.844-.261-1.203,0l-6.403,4.656c-.497.362-1.167-.125-.977-.71l2.452-7.553c.134-.411-.013-.862-.363-1.116L.27,9.829c-.497-.362-.242-1.148.373-1.148h7.934c.433,0,.816-.279.95-.69L11.978.439c.19-.585,1.018-.585,1.208,0Z" fill="#fff200"/>
  <path d="M39.085.439l2.451,7.551c.134.412.517.69.95.69h7.934c.615,0,.871.787.373,1.148l-6.42,4.668c-.35.254-.496.705-.363,1.116l2.452,7.553c.19.585-.48,1.071-.977.71l-6.403-4.656c-.359-.261-.844-.261-1.203,0l-6.403,4.656c-.497.362-1.167-.125-.977-.71l2.452-7.553c.134-.411-.013-.862-.363-1.116l-6.42-4.668c-.497-.362-.242-1.148.373-1.148h7.934c.433,0,.816-.279.95-.69l2.451-7.551c.19-.585,1.018-.585,1.208,0Z" fill="#fff200"/>
  <path d="M64.985.439l2.451,7.551c.134.412.517.69.95.69h7.934c.615,0,.871.787.373,1.148l-6.42,4.668c-.35.254-.496.705-.363,1.116l2.452,7.553c.19.585-.48,1.071-.977.71l-6.403-4.656c-.359-.261-.844-.261-1.203,0l-6.403,4.656c-.497.362-1.167-.125-.977-.71l2.452-7.553c.134-.411-.013-.862-.363-1.116l-6.42-4.668c-.497-.362-.242-1.148.373-1.148h7.934c.433,0,.816-.279.95-.69l2.451-7.551c.19-.585,1.018-.585,1.208,0Z" fill="#fff200"/>
</svg>