<?xml version="1.0" encoding="UTF-8"?>
<svg id="Layer_1" xmlns="http://www.w3.org/2000/svg" version="1.1" viewBox="0 0 102.856 24">
  <!-- Generator: Adobe Illustrator 29.6.1, SVG Export Plug-In . SVG Version: 2.1.1 Build 9)  -->
  <path d="M13.108.383l2.71,8.341h8.77c.536,0,.759.686.325,1.002l-7.095,5.155,2.71,8.341c.166.51-.418.934-.852.619l-7.095-5.155-7.095,5.155c-.434.315-1.018-.109-.852-.619l2.71-8.341L.249,9.725c-.434-.315-.211-1.002.325-1.002h8.77S12.054.383,12.054.383c.166-.51.887-.51,1.053,0Z" fill="#fff200"/>
  <path d="M39.007.383l2.71,8.341h8.77c.536,0,.759.686.325,1.002l-7.095,5.155,2.71,8.341c.166.51-.418.934-.852.619l-7.095-5.155-7.095,5.155c-.434.315-1.018-.109-.852-.619l2.71-8.341-7.095-5.155c-.434-.315-.211-1.002.325-1.002h8.77S37.954.383,37.954.383c.166-.51.887-.51,1.053,0Z" fill="#fff200"/>
  <path d="M64.906.383l2.71,8.341h8.77c.536,0,.759.686.325,1.002l-7.095,5.155,2.71,8.341c.166.51-.418.934-.852.619l-7.095-5.155-7.095,5.155c-.434.315-1.018-.109-.852-.619l2.71-8.341-7.095-5.155c-.434-.315-.211-1.002.325-1.002h8.77S63.852.383,63.852.383c.166-.51.887-.51,1.053,0Z" fill="#fff200"/>
  <path d="M90.807.383l2.71,8.341h8.77c.536,0,.759.686.325,1.002l-7.095,5.155,2.71,8.341c.166.51-.418.934-.852.619l-7.095-5.155-7.095,5.155c-.434.315-1.018-.109-.852-.619l2.71-8.341-7.095-5.155c-.434-.315-.211-1.002.325-1.002h8.77s2.71-8.341,2.71-8.341c.166-.51.887-.51,1.053,0Z" fill="#fff200"/>
</svg>