<?xml version="1.0" encoding="UTF-8"?>
<svg id="Layer_1" xmlns="http://www.w3.org/2000/svg" version="1.1" viewBox="0 0 128.759 24">
  <!-- Generator: Adobe Illustrator 29.6.1, SVG Export Plug-In . SVG Version: 2.1.1 Build 9)  -->
  <path d="M12.582,1.817l2.104,6.482c.269.826,1.033,1.381,1.901,1.381h6.81l-5.51,4.007c-.702.51-.994,1.407-.727,2.234l2.105,6.484-5.494-3.995c-.348-.253-.76-.387-1.19-.387s-.841.134-1.19.387l-5.494,3.995,2.105-6.483c.269-.826-.023-1.725-.726-2.235L1.767,9.681h6.81c.868,0,1.632-.555,1.901-1.381l2.104-6.482M12.582,0c-.255,0-.509.146-.604.439l-2.451,7.552c-.134.411-.517.69-.95.69H.643c-.615,0-.87.786-.373,1.148l6.419,4.667c.35.254.497.705.363,1.116l-2.452,7.553c-.145.446.209.834.606.834.124,0,.252-.038.371-.124l6.403-4.656c.179-.13.391-.196.601-.196s.422.065.602.196l6.403,4.656c.118.086.247.124.371.124.397,0,.751-.388.606-.834l-2.452-7.553c-.133-.411.013-.862.363-1.116l6.42-4.668c.498-.361.242-1.148-.373-1.148h-7.934c-.433,0-.816-.278-.95-.69L13.186.439C13.091.146,12.837,0,12.582,0h0Z" fill="#fff200"/>
  <path d="M38.48,1.816l2.105,6.484c.269.826,1.033,1.381,1.901,1.381h6.81l-5.51,4.007c-.702.51-.994,1.407-.727,2.234l2.105,6.484-5.494-3.995c-.348-.253-.76-.387-1.19-.387s-.841.134-1.19.387l-5.494,3.995,2.105-6.483c.269-.826-.023-1.725-.726-2.235l-5.511-4.007h6.81c.868,0,1.632-.555,1.901-1.381l2.104-6.483M38.48,0c-.255,0-.509.146-.604.439l-2.451,7.551c-.134.411-.517.69-.95.69h-7.934c-.615,0-.87.786-.373,1.148l6.42,4.668c.35.254.497.705.363,1.116l-2.452,7.553c-.145.446.209.834.606.834.124,0,.252-.038.371-.124l6.403-4.656c.18-.13.391-.196.602-.196s.422.065.602.196l6.403,4.656c.118.086.247.124.371.124.397,0,.751-.388.606-.834l-2.452-7.553c-.133-.411.013-.862.363-1.116l6.42-4.668c.498-.361.242-1.148-.373-1.148h-7.934c-.433,0-.816-.278-.95-.69l-2.451-7.551h0c-.095-.292-.349-.439-.604-.439h0Z" fill="#fff200"/>
  <path d="M64.38,1.816l2.105,6.484c.269.826,1.033,1.381,1.901,1.381h6.81l-5.51,4.007c-.702.51-.994,1.407-.727,2.234l2.105,6.484-5.494-3.995c-.348-.253-.76-.387-1.19-.387s-.841.134-1.19.387l-5.494,3.995,2.105-6.483c.269-.826-.023-1.724-.726-2.235l-5.511-4.007h6.81c.868,0,1.632-.555,1.901-1.381l2.104-6.483M64.38,0c-.255,0-.509.146-.604.439l-2.451,7.551c-.134.411-.517.69-.95.69h-7.934c-.615,0-.87.786-.373,1.148l6.42,4.668c.35.254.497.705.363,1.116l-2.452,7.553c-.145.446.209.834.606.834.124,0,.252-.038.371-.124l6.403-4.656c.179-.13.39-.196.601-.196s.422.065.602.196l6.403,4.656c.118.086.247.124.371.124.397,0,.751-.388.606-.834l-2.452-7.553c-.133-.411.013-.862.363-1.116l6.42-4.668c.498-.361.242-1.148-.373-1.148h-7.934c-.433,0-.816-.278-.95-.69l-2.451-7.551h0c-.095-.292-.349-.439-.604-.439h0Z" fill="#fff200"/>
  <path d="M90.279,1.816l2.105,6.484c.269.826,1.033,1.381,1.901,1.381h6.81l-5.51,4.007c-.702.51-.994,1.407-.727,2.234l2.105,6.484-5.494-3.995c-.348-.253-.76-.387-1.19-.387s-.841.134-1.19.387l-5.494,3.995,2.105-6.483c.269-.826-.023-1.725-.726-2.235l-5.511-4.007h6.81c.868,0,1.632-.555,1.901-1.381l2.104-6.483M90.279,0c-.254,0-.509.146-.604.439l-2.451,7.551c-.134.411-.517.69-.95.69h-7.934c-.615,0-.87.786-.373,1.148l6.42,4.668c.35.254.497.705.363,1.116l-2.452,7.553c-.145.446.209.834.606.834.124,0,.252-.038.371-.124l6.403-4.656c.179-.13.39-.196.602-.196s.422.065.602.196l6.403,4.656c.118.086.247.124.371.124.397,0,.751-.388.606-.834l-2.452-7.553c-.133-.411.013-.862.363-1.116l6.42-4.668c.498-.361.242-1.148-.373-1.148h-7.934c-.433,0-.816-.278-.95-.69l-2.451-7.551h0c-.095-.292-.349-.439-.604-.439h0Z" fill="#fff200"/>
  <path d="M116.178,1.816l2.105,6.484c.269.826,1.033,1.381,1.901,1.381h6.81l-5.51,4.007c-.702.51-.994,1.407-.727,2.234l2.105,6.484-5.494-3.995c-.348-.253-.76-.387-1.19-.387s-.841.134-1.19.387l-5.494,3.995,2.105-6.483c.269-.826-.023-1.725-.726-2.235l-5.511-4.007h6.81c.868,0,1.632-.555,1.901-1.381l2.104-6.483M116.178,0c-.254,0-.509.146-.604.439l-2.451,7.551c-.134.411-.517.69-.95.69h-7.934c-.615,0-.87.786-.373,1.148l6.42,4.668c.35.254.497.705.363,1.116l-2.452,7.553c-.145.446.209.834.606.834.124,0,.252-.038.371-.124l6.403-4.656c.179-.13.39-.196.602-.196s.422.065.602.196l6.403,4.656c.118.086.247.124.371.124.397,0,.751-.388.606-.834l-2.452-7.553c-.133-.411.013-.862.363-1.116l6.42-4.668c.498-.361.242-1.148-.373-1.148h-7.934c-.433,0-.816-.278-.95-.69l-2.451-7.551h0c-.095-.292-.349-.439-.604-.439h0Z" fill="#fff200"/>
</svg>