<?xml version="1.0" encoding="UTF-8"?>
<svg id="Layer_1" xmlns="http://www.w3.org/2000/svg" version="1.1" viewBox="0 0 24 24">
  <!-- Generator: Adobe Illustrator 29.6.1, SVG Export Plug-In . SVG Version: 2.1.1 Build 9)  -->
  <path d="M11.896,1.041c5.806,0,10.53,4.724,10.53,10.53s-4.724,10.53-10.53,10.53S1.366,17.377,1.366,11.571,6.089,1.041,11.896,1.041M11.896.064C5.541.064.389,5.216.389,11.571s5.152,11.507,11.507,11.507,11.507-5.152,11.507-11.507S18.251.064,11.896.064h0ZM23.53,23.857c.191-.191.191-.5,0-.691l-3.748-3.748c-.191-.191-.5-.191-.691,0s-.191.5,0,.691l3.748,3.748c.095.095.22.143.345.143s.25-.048.345-.143Z"/>
</svg>